<?xml version="1.0" encoding="UTF-8" standalone="no"?>
<svg
   xmlns:dc="http://purl.org/dc/elements/1.1/"
   xmlns:cc="http://creativecommons.org/ns#"
   xmlns:rdf="http://www.w3.org/1999/02/22-rdf-syntax-ns#"
   xmlns:svg="http://www.w3.org/2000/svg"
   xmlns="http://www.w3.org/2000/svg"
   xmlns:xlink="http://www.w3.org/1999/xlink"
   version="1.1"
   width="45"
   height="45"
   id="svg548">
  <metadata
     id="metadata57">
    <rdf:RDF>
      <cc:Work
         rdf:about="">
        <dc:format>image/svg+xml</dc:format>
        <dc:type
           rdf:resource="http://purl.org/dc/dcmitype/StillImage" />
        <dc:title></dc:title>
      </cc:Work>
    </rdf:RDF>
  </metadata>
  <defs
     id="defs630">
    <linearGradient
       x1="22.669001"
       y1="9.3192997"
       x2="23.184"
       y2="11.242"
       id="XMLID_11_"
       gradientUnits="userSpaceOnUse">
      <stop
         id="stop607"
         style="stop-color:#ffffff;stop-opacity:1"
         offset="0" />
      <stop
         id="stop608"
         style="stop-color:#cecedb;stop-opacity:1"
         offset="1" />
    </linearGradient>
    <linearGradient
       x1="22.367001"
       y1="7.8495998"
       x2="24.236"
       y2="14.824"
       id="linearGradient2914"
       gradientUnits="userSpaceOnUse"
       gradientTransform="translate(-1.5997614,-1.6)">
      <stop
         id="stop614"
         style="stop-color:#cecedb;stop-opacity:1"
         offset="0" />
      <stop
         id="stop615"
         style="stop-color:#cbcbd7;stop-opacity:1"
         offset="0.0054" />
      <stop
         id="stop616"
         style="stop-color:#a5a5ad;stop-opacity:1"
         offset="0.0705" />
      <stop
         id="stop617"
         style="stop-color:#87878c;stop-opacity:1"
         offset="0.1338" />
      <stop
         id="stop618"
         style="stop-color:#727274;stop-opacity:1"
         offset="0.19410001" />
      <stop
         id="stop619"
         style="stop-color:#656566;stop-opacity:1"
         offset="0.2502" />
      <stop
         id="stop620"
         style="stop-color:#616161;stop-opacity:1"
         offset="0.29769999" />
      <stop
         id="stop621"
         style="stop-color:#000000;stop-opacity:1"
         offset="1" />
    </linearGradient>
    <linearGradient
       x1="311.22"
       y1="17.458"
       x2="311.22"
       y2="23.226"
       id="linearGradient2919"
       gradientUnits="userSpaceOnUse"
       gradientTransform="matrix(1,0,0.2679,1,-294.30976,-1.6)">
      <stop
         id="stop596"
         style="stop-color:#cecedb;stop-opacity:1"
         offset="0" />
      <stop
         id="stop597"
         style="stop-color:#828282;stop-opacity:1"
         offset="0.29769999" />
      <stop
         id="stop598"
         style="stop-color:#000000;stop-opacity:1"
         offset="1" />
    </linearGradient>
    <linearGradient
       x1="24.16"
       y1="18.868"
       x2="24.16"
       y2="20.534"
       id="linearGradient2922"
       gradientUnits="userSpaceOnUse"
       gradientTransform="translate(-1.5997614,-1.6)">
      <stop
         id="stop589"
         style="stop-color:#ffffff;stop-opacity:1"
         offset="0" />
      <stop
         id="stop590"
         style="stop-color:#e9e9ef;stop-opacity:1"
         offset="1" />
    </linearGradient>
    <linearGradient
       x1="24.947001"
       y1="21.048"
       x2="24.947001"
       y2="23.1"
       id="linearGradient2926"
       gradientUnits="userSpaceOnUse"
       gradientTransform="translate(-1.5997614,-1.6)">
      <stop
         id="stop576"
         style="stop-color:#616161;stop-opacity:1"
         offset="0" />
      <stop
         id="stop577"
         style="stop-color:#88888a;stop-opacity:1"
         offset="0.1569" />
      <stop
         id="stop578"
         style="stop-color:#ababae;stop-opacity:1"
         offset="0.32600001" />
      <stop
         id="stop579"
         style="stop-color:#c6c6ca;stop-opacity:1"
         offset="0.49630001" />
      <stop
         id="stop580"
         style="stop-color:#d9d9df;stop-opacity:1"
         offset="0.66570002" />
      <stop
         id="stop581"
         style="stop-color:#e5e5eb;stop-opacity:1"
         offset="0.83399999" />
      <stop
         id="stop582"
         style="stop-color:#e9e9ef;stop-opacity:1"
         offset="1" />
    </linearGradient>
    <linearGradient
       x1="24.948"
       y1="49.257"
       x2="24.948"
       y2="21.948"
       id="linearGradient2930"
       gradientUnits="userSpaceOnUse"
       gradientTransform="translate(-1.5997614,-1.6)">
      <stop
         id="stop557"
         style="stop-color:#ffffff;stop-opacity:1"
         offset="0.0056" />
      <stop
         id="stop558"
         style="stop-color:#f8f8fa;stop-opacity:1"
         offset="0.045" />
      <stop
         id="stop559"
         style="stop-color:#e4e4ec;stop-opacity:1"
         offset="0.1027" />
      <stop
         id="stop560"
         style="stop-color:#c4c4d4;stop-opacity:1"
         offset="0.17129999" />
      <stop
         id="stop561"
         style="stop-color:#bdbdcf;stop-opacity:1"
         offset="0.18539999" />
      <stop
         id="stop562"
         style="stop-color:#bebed0;stop-opacity:1"
         offset="0.18960001" />
      <stop
         id="stop563"
         style="stop-color:#cacad8;stop-opacity:1"
         offset="0.27509999" />
      <stop
         id="stop564"
         style="stop-color:#cecedb;stop-opacity:1"
         offset="0.35949999" />
      <stop
         id="stop565"
         style="stop-color:#e9e9ef;stop-opacity:1"
         offset="0.78649998" />
    </linearGradient>
    <filter
       color-interpolation-filters="sRGB"
       id="filter3831">
      <feGaussianBlur
         stdDeviation="0.41930778"
         id="feGaussianBlur3833" />
    </filter>
    <linearGradient
       x1="23.03125"
       y1="24.3125"
       x2="23.03125"
       y2="36.249878"
       id="linearGradient1375"
       xlink:href="#linearGradient3050"
       gradientUnits="userSpaceOnUse"
       gradientTransform="matrix(0.900634,0,0,0.512797,2.420862,9.703722)" />
    <linearGradient
       x1="11.25"
       y1="26.09375"
       x2="36.875"
       y2="26.09375"
       id="linearGradient1372"
       xlink:href="#linearGradient3068"
       gradientUnits="userSpaceOnUse"
       gradientTransform="matrix(0.900635,0,0,0.512797,2.616633,10.42827)" />
    <radialGradient
       cx="29.288071"
       cy="15.720984"
       r="8.9020796"
       fx="29.158466"
       fy="15.755712"
       id="radialGradient1362"
       xlink:href="#linearGradient3290"
       gradientUnits="userSpaceOnUse" />
    <radialGradient
       cx="24.714285"
       cy="38.57143"
       r="19.714285"
       fx="24.714285"
       fy="38.57143"
       id="radialGradient1360"
       xlink:href="#linearGradient4565"
       gradientUnits="userSpaceOnUse"
       gradientTransform="matrix(1,0,0,0.333333,0,25.71429)" />
    <linearGradient
       id="linearGradient4565">
      <stop
         id="stop4567"
         style="stop-color:#000000;stop-opacity:1"
         offset="0" />
      <stop
         id="stop4569"
         style="stop-color:#000000;stop-opacity:0"
         offset="1" />
    </linearGradient>
    <linearGradient
       id="linearGradient3050">
      <stop
         id="stop3052"
         style="stop-color:#a40000;stop-opacity:1"
         offset="0" />
      <stop
         id="stop3054"
         style="stop-color:#ec0000;stop-opacity:1"
         offset="1" />
    </linearGradient>
    <linearGradient
       id="linearGradient3068">
      <stop
         id="stop3070"
         style="stop-color:#696969;stop-opacity:1"
         offset="0" />
      <stop
         id="stop3076"
         style="stop-color:#ffffff;stop-opacity:1"
         offset="0.34579438" />
      <stop
         id="stop3078"
         style="stop-color:#ffffff;stop-opacity:1"
         offset="0.72486681" />
      <stop
         id="stop3072"
         style="stop-color:#5c5c5c;stop-opacity:1"
         offset="1" />
    </linearGradient>
    <linearGradient
       id="linearGradient3290">
      <stop
         id="stop3292"
         style="stop-color:#fffcde;stop-opacity:1"
         offset="0" />
      <stop
         id="stop3294"
         style="stop-color:#f6e76a;stop-opacity:1"
         offset="0.64485979" />
      <stop
         id="stop3296"
         style="stop-color:#ffb738;stop-opacity:1"
         offset="1" />
    </linearGradient>
  </defs>
  <path
     d="M 42.706739,15.7335 H 8.8097386 L 41.544739,6.9615 c 0.188,-0.05 0.346,-0.171 0.443,-0.341 0.097,-0.168 0.123,-0.365 0.073,-0.554 l -1.08,-4.032 c -0.049,-0.185 -0.173,-0.347 -0.341,-0.444 -0.169,-0.097 -0.365,-0.123 -0.554,-0.072 l -0.248,0.066 0.052,0.026 c -0.271,0.035 -0.743,0.159 -1.664,0.406 l -35.9320004,9.629 c -0.188,0.05 -0.345,0.171 -0.443,0.339 -0.065,0.114 -0.098,0.239 -0.098,0.365 0,0.063 0.008,0.127 0.025,0.19 l 1.073,4.003 v 4.093 c 0,0.403 0.328,0.73 0.73,0.73 h 1.524 v 21.457 c 0,0.366 0.273,0.677 0.636,0.725 l 0.219,0.027 c 0.238,0.029 0.863,0.096 1.593,0.096 H 40.309739 c 1.351,0 2.448,-1.115 2.448,-2.484 v -19.825 c 0.378,-0.027 0.679,-0.34 0.679,-0.725 v -4.173 c 0,-0.403 -0.327,-0.73 -0.73,-0.73 z"
     id="path552"
     style="opacity:0.5;filter:url(#filter3831)" />
  <path
     d="m 42.123239,15.15 h -0.256 H 8.2262386 L 40.961239,6.379 c 0.188,-0.051 0.346,-0.172 0.443,-0.341 0.097,-0.169 0.123,-0.365 0.072,-0.554 l -1.08,-4.032 c -0.049,-0.186 -0.174,-0.348 -0.341,-0.444 -0.169,-0.097 -0.365,-0.123 -0.554,-0.072 l -0.248,0.067 0.052,0.026 c -0.271,0.034 -0.743,0.159 -1.664,0.406 L 1.7112386,11.062 c -0.188,0.05 -0.345,0.171 -0.443,0.339 -0.065,0.114 -0.098,0.239 -0.098,0.365 0,0.063 0.008,0.128 0.025,0.19 l 1.073,4.002 v 4.094 c 0,0.402 0.328,0.73 0.73,0.73 h 1.524 v 21.674 c 0,0.41134 0.22768,0.63147 0.636,0.63147 l 34.5690004,-2e-4 c 1.351,0 2.448,-1.114 2.448,-2.484 v -19.826 c 0.378,-0.027 0.679,-0.339 0.679,-0.725 v -4.173 c -10e-4,-0.402 -0.329,-0.729 -0.731,-0.729 z"
     id="path553" />
  <path
     d="M 5.5022386,42.1 H 39.726239 c 0.81,0 1.467,-0.671 1.467,-1.498 v -21.47 c 0,-0.828 -0.657,-1.499 -1.467,-1.499 H 6.9692386 c -0.81,0 -1.467,0.671 -1.467,1.499 V 42.1 z"
     id="path555"
     style="fill:#ffffff" />
  <path
     d="M 5.5022386,42.1 H 39.726239 c 0.81,0 1.467,-0.671 1.467,-1.498 v -21.47 c 0,-0.828 -0.657,-1.499 -1.467,-1.499 H 6.9692386 c -0.81,0 -1.467,0.671 -1.467,1.499 V 42.1 z"
     id="path573"
     style="opacity:0.8;fill:url(#linearGradient2930)" />
  <path
     d="M 39.726239,17.633 H 6.9692386 c -0.81,0 -1.467,0.671 -1.467,1.499 V 42.1 H 39.726239 c 0.81,0 1.467,-0.671 1.467,-1.498 v -21.47 c 0,-0.828 -0.657,-1.499 -1.467,-1.499 z m 0.444,22.969 c 0,0.262 -0.199,0.474 -0.443,0.474 H 6.5262386 V 19.132 c 0,-0.261 0.199,-0.475 0.443,-0.475 H 39.726239 c 0.244,0 0.443,0.213 0.443,0.475 v 21.47 h 0.001 z"
     id="path574"
     style="opacity:0.5;fill:#ffffff" />
  <path
     d="m 5.5022386,22.082 c 0,0 0.657,0.016 1.467,0.016 H 39.726239 c 0.81,0 1.467,-0.123 1.467,-0.274 v -3.917 c 0,-0.15 -0.657,-0.273 -1.467,-0.273 H 6.9692386 c -0.81,0 -1.467,0.123 -1.467,0.273 v 4.175 z"
     id="path586"
     style="opacity:0.8;fill:url(#linearGradient2926)" />
  <path
     d="M 41.867239,15.539 H 2.9972386 c -0.188,0 -0.341,0.153 -0.341,0.341 v 4.173 c 0,0.188 0.153,0.341 0.341,0.341 H 42.122239 c 0.189,0 0.342,-0.153 0.342,-0.341 V 15.88 c 0,-0.188 -0.152,-0.341 -0.342,-0.341 h -0.255 z"
     id="path587" />
  <rect
     width="38.612999"
     height="3.661"
     x="3.2542388"
     y="16.135002"
     id="rect594"
     style="fill:url(#linearGradient2922)" />
  <path
     d="m 6.1622386,19.796 h 3.662 l -1.627,-3.661 h -3.661 l 1.626,3.661 M 23.175239,16.135 h -3.66 l 1.626,3.661 h 3.661 l -1.627,-3.661 m -7.489,0 h -3.662 l 1.627,3.661 h 3.662 l -1.627,-3.661 m 22.47,0 h -3.663 l 1.628,3.661 h 3.661 l -1.626,-3.661 m -7.49,0 h -3.662 l 1.627,3.661 h 3.664 l -1.629,-3.661 z"
     id="path604"
     style="fill:url(#linearGradient2919)" />
  <path
     d="m 39.603239,1.311 -0.248,0.067 h 0.001 L 1.8112386,11.438 c -0.088,0.023 -0.162,0.081 -0.208,0.159 -0.046,0.078 -0.058,0.171 -0.034,0.258 l 1.081,4.033 c 0.049,0.182 0.236,0.29 0.418,0.241 L 40.861239,6.003 c 0.182,-0.049 0.29,-0.236 0.24,-0.418 l -1.079,-4.032 c -0.023,-0.087 -0.081,-0.162 -0.159,-0.208 -0.079,-0.045 -0.172,-0.057 -0.26,-0.034 z"
     id="path605" />
  <polygon
     points="42.06,7.091 41.111,3.555 3.814,13.548 4.761,17.085 "
     transform="translate(-1.5997614,-1.6)"
     id="polygon612"
     style="fill:url(#XMLID_11_)" />
  <path
     d="m 5.9702386,14.733 3.538,-0.947 -1.571,-3.371 -3.537,0.948 1.57,3.37 m 16.4340004,-8.194 -3.537,0.948 1.571,3.37 3.538,-0.948 -1.572,-3.37 m -7.234,1.938 -3.537,0.948 1.572,3.37 3.536,-0.949 -1.571,-3.369 m 21.703,-5.815 -3.535,0.947 1.571,3.37 3.537,-0.947 -1.573,-3.37 m -7.234,1.939 -3.538,0.946 1.572,3.371 3.537,-0.948 -1.571,-3.369 z"
     id="path627"
     style="fill:url(#linearGradient2914)" />
  <g
     transform="matrix(0.47066298,0,0,0.47066298,11.71564,19.548143)"
     id="layer1">
    <path
       d="m 44.42857,38.57143 a 19.714285,6.5714288 0 1 1 -39.42857,0 19.714285,6.5714288 0 1 1 39.42857,0 z"
       id="path4563"
       style="opacity:0.53164559;fill:url(#radialGradient1360)" />
    <path
       d="m 39.774755,19.008621 a 8.6620579,8.6620579 0 1 1 -17.324115,0 8.6620579,8.6620579 0 1 1 17.324115,0 z"
       transform="matrix(2.083142,0,0,2.083142,-40.54715,-16.49224)"
       id="path4320"
       style="fill:url(#radialGradient1362);stroke:#9c8c0a;stroke-width:0.48004404" />
    <path
       d="m 39.774755,19.008621 a 8.6620579,8.6620579 0 1 1 -17.324115,0 8.6620579,8.6620579 0 1 1 17.324115,0 z"
       transform="matrix(1.979782,0,0,1.979782,-37.33128,-14.52746)"
       id="path4322"
       style="opacity:0.67721522;fill:none;stroke:#ffffff;stroke-width:0.50510627" />
    <path
       d="m 12.46856,21.582101 c -2.6369108,-0.621975 1.864996,6.83873 11.792676,6.83873 9.829798,0 14.669193,-7.443417 11.792676,-6.83873 -7.506354,1.57795 -17.16551,1.514266 -23.585352,0 z"
       id="path2756"
       style="fill:url(#linearGradient1375);stroke:#a40000" />
    <path
       d="m 13.536826,24.177654 21.532033,-0.05992 c 0.783095,-0.919614 1.898193,-2.372046 1.05233,-2.242999 -8.023318,1.224064 -16.571085,1.796229 -23.861853,-0.100331 -1.161346,-0.302104 0.15179,1.622969 1.27749,2.403247 z"
       id="path3058"
       style="fill:url(#linearGradient1372)" />
    <path
       d="M -0.875,1.875 A 2.9375,2.875 0 0 1 -6.3564497,3.3124999"
       transform="matrix(-0.965926,-0.258819,0.258819,-0.965926,24.53442,17.20131)"
       id="path1364"
       style="fill:none;stroke:#555753" />
    <path
       d="M -0.875,1.875 A 2.9375,2.875 0 0 1 -6.3564497,3.3124999"
       transform="matrix(-0.965926,-0.258819,0.258819,-0.965926,15.78442,17.20131)"
       id="path2094"
       style="fill:none;stroke:#555753" />
  </g>
</svg>
